<svg width="65" height="65" viewBox="0 0 65 65" fill="none" xmlns="http://www.w3.org/2000/svg">
<g clip-path="url(#clip0_3037_2264)">
<path d="M49.3946 0.382446H15.2116C6.88274 0.382446 0.130859 7.13433 0.130859 15.4632V49.6462C0.130859 57.9751 6.88274 64.727 15.2116 64.727H49.3946C57.7235 64.727 64.4754 57.9751 64.4754 49.6462V15.4632C64.4754 7.13433 57.7235 0.382446 49.3946 0.382446Z" fill="url(#paint0_radial_3037_2264)"/>
<path d="M49.3946 0.382446H15.2116C6.88274 0.382446 0.130859 7.13433 0.130859 15.4632V49.6462C0.130859 57.9751 6.88274 64.727 15.2116 64.727H49.3946C57.7235 64.727 64.4754 57.9751 64.4754 49.6462V15.4632C64.4754 7.13433 57.7235 0.382446 49.3946 0.382446Z" fill="url(#paint1_radial_3037_2264)"/>
<path d="M32.3048 7.42004C25.4788 7.42004 24.6219 7.44995 21.9411 7.57186C19.2652 7.69451 17.4387 8.11803 15.8407 8.73961C14.1873 9.38155 12.785 10.2404 11.3881 11.6379C9.98983 13.0351 9.13098 14.4374 8.48703 16.09C7.86369 17.6885 7.43967 19.5158 7.31928 22.1904C7.19939 24.8715 7.16797 25.7286 7.16797 32.5549C7.16797 39.3812 7.19813 40.2353 7.31978 42.9161C7.44294 45.5919 7.86646 47.4185 8.48753 49.0165C9.12997 50.6699 9.98882 52.0721 11.3863 53.4691C12.783 54.8674 14.1853 55.7282 15.8374 56.3701C17.4367 56.9917 19.2635 57.4152 21.9388 57.5379C24.6199 57.6598 25.476 57.6897 32.3018 57.6897C39.1286 57.6897 39.9827 57.6598 42.6635 57.5379C45.3394 57.4152 47.1679 56.9917 48.7672 56.3701C50.4198 55.7282 51.8201 54.8674 53.2165 53.4691C54.6148 52.0721 55.4734 50.6699 56.1176 49.0173C56.7354 47.4185 57.1597 45.5914 57.2853 42.9166C57.4057 40.2358 57.4371 39.3812 57.4371 32.5549C57.4371 25.7286 57.4057 24.872 57.2853 22.1909C57.1597 19.5151 56.7354 17.6888 56.1176 16.0907C55.4734 14.4374 54.6148 13.0351 53.2165 11.6379C51.8186 10.2399 50.4203 9.38104 48.7657 8.73986C47.1634 8.11803 45.3358 7.69426 42.66 7.57186C39.9789 7.44995 39.1253 7.42004 32.297 7.42004H32.3048ZM30.05 11.9495C30.7193 11.9485 31.4661 11.9495 32.3048 11.9495C39.016 11.9495 39.8113 11.9737 42.4614 12.0941C44.9121 12.2062 46.2422 12.6156 47.1282 12.9597C48.3012 13.4151 49.1374 13.9598 50.0167 14.8398C50.8964 15.7195 51.4408 16.5572 51.8975 17.7302C52.2416 18.615 52.6515 19.9451 52.7631 22.3957C52.8835 25.0454 52.9096 25.8412 52.9096 32.5491C52.9096 39.257 52.8835 40.053 52.7631 42.7025C52.651 45.1531 52.2416 46.4832 51.8975 47.3682C51.442 48.5412 50.8964 49.3765 50.0167 50.2557C49.1369 51.1354 48.3017 51.6798 47.1282 52.1355C46.2432 52.4811 44.9121 52.8895 42.4614 53.0016C39.8118 53.122 39.016 53.1481 32.3048 53.1481C25.5934 53.1481 24.7979 53.122 22.1484 53.0016C19.6978 52.8885 18.3677 52.4791 17.4809 52.135C16.3082 51.6793 15.4702 51.1349 14.5905 50.2552C13.7108 49.3754 13.1663 48.5397 12.7096 47.3662C12.3655 46.4812 11.9556 45.1511 11.844 42.7005C11.7236 40.0508 11.6995 39.255 11.6995 32.5428C11.6995 25.8306 11.7236 25.0391 11.844 22.3894C11.9561 19.9388 12.3655 18.6087 12.7096 17.7227C13.1653 16.5497 13.7108 15.7119 14.5907 14.8322C15.4707 13.9525 16.3082 13.4079 17.4812 12.9514C18.3672 12.6058 19.6978 12.1974 22.1484 12.0848C24.4671 11.98 25.3657 11.9485 30.05 11.9433V11.9495ZM45.7217 16.1229C44.0565 16.1229 42.7055 17.4726 42.7055 19.138C42.7055 20.8032 44.0565 22.1542 45.7217 22.1542C47.3868 22.1542 48.7378 20.8032 48.7378 19.138C48.7378 17.4729 47.3868 16.1219 45.7217 16.1219V16.1229ZM32.3048 19.647C25.1766 19.647 19.3972 25.4265 19.3972 32.5549C19.3972 39.6833 25.1766 45.46 32.3048 45.46C39.4332 45.46 45.2107 39.6833 45.2107 32.5549C45.2107 25.4267 39.4327 19.647 32.3043 19.647H32.3048ZM32.3048 24.1765C36.9318 24.1765 40.6832 27.9274 40.6832 32.5549C40.6832 37.1819 36.9318 40.9332 32.3048 40.9332C27.6778 40.9332 23.9267 37.1819 23.9267 32.5549C23.9267 27.9274 27.6775 24.1765 32.3048 24.1765Z" fill="white"/>
</g>
<defs>
<radialGradient id="paint0_radial_3037_2264" cx="0" cy="0" r="1" gradientUnits="userSpaceOnUse" gradientTransform="translate(17.2224 69.6828) rotate(-90) scale(63.7702 59.3113)">
<stop stop-color="#FFDD55"/>
<stop offset="0.1" stop-color="#FFDD55"/>
<stop offset="0.5" stop-color="#FF543E"/>
<stop offset="1" stop-color="#C837AB"/>
</radialGradient>
<radialGradient id="paint1_radial_3037_2264" cx="0" cy="0" r="1" gradientUnits="userSpaceOnUse" gradientTransform="translate(-10.6471 5.01751) rotate(78.681) scale(28.5056 117.501)">
<stop stop-color="#3771C8"/>
<stop offset="0.128" stop-color="#3771C8"/>
<stop offset="1" stop-color="#6600FF" stop-opacity="0"/>
</radialGradient>
<clipPath id="clip0_3037_2264">
<rect width="64.3445" height="64.3445" fill="white" transform="translate(0.130859 0.382446)"/>
</clipPath>
</defs>
</svg>
