<svg width="60" height="64" viewBox="0 0 60 64" fill="none" xmlns="http://www.w3.org/2000/svg">
<path d="M36.4834 49.3589L19.6547 40.1805C18.0393 41.784 15.9853 42.8733 13.7517 43.3112C11.5181 43.749 9.2049 43.5158 7.10367 42.6409C5.00243 41.766 3.20726 40.2886 1.94447 38.3949C0.681684 36.5012 0.0078125 34.2761 0.0078125 31.9999C0.0078125 29.7238 0.681684 27.4987 1.94447 25.605C3.20726 23.7113 5.00243 22.2339 7.10367 21.359C9.2049 20.4841 11.5181 20.2508 13.7517 20.6887C15.9853 21.1266 18.0393 22.2159 19.6547 23.8194L36.4834 14.641C35.9062 11.933 36.3231 9.10779 37.6578 6.68193C38.9924 4.25606 41.1557 2.39168 43.752 1.42971C46.3483 0.467749 49.2042 0.472487 51.7973 1.44306C54.3904 2.41364 56.5474 4.28519 57.874 6.71547C59.2007 9.14575 59.6082 11.9723 59.022 14.6784C58.4358 17.3844 56.8952 19.789 54.6819 21.4525C52.4685 23.116 49.7303 23.9272 46.968 23.7377C44.2057 23.5483 41.6039 22.3708 39.6384 20.4207L22.8096 29.5991C23.1462 31.1809 23.1462 32.8157 22.8096 34.3975L39.6384 43.5792C41.6039 41.6291 44.2057 40.4516 46.968 40.2622C49.7303 40.0727 52.4685 40.8839 54.6819 42.5474C56.8952 44.2109 58.4358 46.6155 59.022 49.3215C59.6082 52.0275 59.2007 54.8541 57.874 57.2844C56.5474 59.7147 54.3904 61.5863 51.7973 62.5568C49.2042 63.5274 46.3483 63.5321 43.752 62.5702C41.1557 61.6082 38.9924 59.7438 37.6578 57.318C36.3231 54.8921 35.9062 52.0669 36.4834 49.3589Z" fill="#343650"/>
</svg>
