<svg width="63" height="71" viewBox="0 0 63 71" fill="none" xmlns="http://www.w3.org/2000/svg">
<g clip-path="url(#clip0_3037_2269)">
<path d="M46.8148 25.6879C51.358 28.9354 56.9238 30.8462 62.9349 30.8462V19.2798C61.7972 19.2802 60.6626 19.1615 59.5496 18.9255V28.0299C53.5389 28.0299 47.9739 26.1194 43.4297 22.8721V46.4761C43.4297 58.2841 33.8568 67.8556 22.0491 67.8556C17.6433 67.8556 13.5482 66.5237 10.1465 64.2394C14.029 68.2091 19.4435 70.6716 25.4335 70.6716C37.2422 70.6716 46.8153 61.1002 46.8153 49.2916V25.6879H46.8148ZM50.9912 14.0188C48.6693 11.4824 47.1447 8.20446 46.8148 4.58049V3.0929H43.6068C44.4143 7.69878 47.169 11.6337 50.9912 14.0188ZM17.6149 55.1785C16.3175 53.4779 15.6163 51.3971 15.6196 49.2578C15.6196 43.8574 19.9981 39.4785 25.4002 39.4785C26.4068 39.478 27.4074 39.6325 28.367 39.9368V28.1117C27.2456 27.9581 26.1141 27.8927 24.983 27.9168V37.1207C24.023 36.8164 23.0218 36.662 22.0148 36.6627C16.613 36.6627 12.2347 41.0411 12.2347 46.4422C12.2347 50.2614 14.4231 53.5678 17.6149 55.1785Z" fill="#FF004F"/>
<path d="M43.4315 22.8719C47.9759 26.1191 53.5405 28.0297 59.5514 28.0297V18.9252C56.1961 18.2105 53.226 16.4574 50.9928 14.0188C47.1703 11.6335 44.4161 7.69853 43.6086 3.0929H35.1821V49.2911C35.1629 54.677 30.7919 59.0378 25.4015 59.0378C22.2253 59.0378 19.4032 57.5239 17.6162 55.1783C14.4249 53.5678 12.2362 50.2611 12.2362 46.4425C12.2362 41.0418 16.6145 36.663 22.0163 36.663C23.0513 36.663 24.0488 36.8241 24.9846 37.121V27.917C13.3841 28.1567 4.05469 37.6347 4.05469 49.2914C4.05469 55.1104 6.37785 60.3855 10.1485 64.2399C13.5502 66.5237 17.6451 67.856 22.0511 67.856C33.8591 67.856 43.4317 58.2839 43.4317 46.4761L43.4315 22.8719Z" fill="black"/>
<path d="M59.5498 18.861V16.4009C56.5242 16.4053 53.5583 15.5584 50.9912 13.9571C53.2636 16.4435 56.2557 18.1581 59.5498 18.8615M43.6068 3.03594C43.5298 2.59606 43.4708 2.15325 43.4297 1.70859V0.22168H31.7946V46.3992C31.7762 51.782 27.4052 56.1409 22.0145 56.1409C20.4863 56.1431 18.979 55.7859 17.6144 55.0981C19.4014 57.4422 22.2235 58.9551 25.3997 58.9551C30.7898 58.9551 35.1613 54.5968 35.1803 49.2134V3.03619L43.6068 3.03594ZM24.9835 27.8486V25.2292C24.0112 25.0965 23.0311 25.03 22.0498 25.0302C10.2406 25.0302 0.667969 34.5978 0.667969 46.3992C0.667969 53.7982 4.43013 60.319 10.1472 64.1546C6.37652 60.3022 4.05335 55.0293 4.05335 49.2132C4.05335 37.5621 13.3825 28.0882 24.9835 27.8486Z" fill="#00F2EA"/>
</g>
<defs>
<clipPath id="clip0_3037_2269">
<rect width="62.2832" height="70.5552" fill="white" transform="translate(0.667969 0.2771)"/>
</clipPath>
</defs>
</svg>
